<svg width="48" height="48" viewBox="0 0 48 48" fill="none" xmlns="http://www.w3.org/2000/svg">
<path d="M31.995 14.415C31.5693 14.415 31.1611 14.2459 30.8601 13.9449C30.5591 13.6439 30.39 13.2357 30.39 12.81V6.40498C30.39 5.98189 30.223 5.57591 29.9252 5.27534C29.6274 4.97478 29.2231 4.80393 28.8 4.79998H19.2C18.9892 4.79998 18.7805 4.84149 18.5858 4.92215C18.3911 5.00281 18.2141 5.12104 18.0651 5.27007C17.916 5.41911 17.7978 5.59605 17.7172 5.79077C17.6365 5.9855 17.595 6.19421 17.595 6.40498V12.81C17.6166 13.0328 17.5914 13.2576 17.5209 13.4701C17.4505 13.6826 17.3364 13.8779 17.1859 14.0437C17.0355 14.2094 16.852 14.3419 16.6474 14.4325C16.4427 14.5231 16.2213 14.57 15.9975 14.57C15.7736 14.57 15.5523 14.5231 15.3476 14.4325C15.1429 14.3419 14.9595 14.2094 14.809 14.0437C14.6586 13.8779 14.5445 13.6826 14.474 13.4701C14.4036 13.2576 14.3784 13.0328 14.4 12.81V6.40498C14.4 5.13194 14.9057 3.91104 15.8059 3.01087C16.706 2.11069 17.9269 1.60498 19.2 1.60498H28.8C30.073 1.60498 31.2939 2.11069 32.1941 3.01087C33.0943 3.91104 33.6 5.13194 33.6 6.40498V12.81C33.6 13.2357 33.4309 13.6439 33.1299 13.9449C32.8289 14.2459 32.4207 14.415 31.995 14.415Z" fill="url(#paint0_linear_102_13)"/>
<path d="M40.005 11.205H7.995C3.57948 11.205 0 14.7844 0 19.2V38.4C0 42.8155 3.57948 46.395 7.995 46.395H40.005C44.4205 46.395 48 42.8155 48 38.4V19.2C48 14.7844 44.4205 11.205 40.005 11.205Z" fill="url(#paint1_linear_102_13)"/>
<path d="M24 29.49C22.4476 29.4753 20.9152 29.1382 19.5 28.5L9 23.865C8.60217 23.692 8.28939 23.368 8.13045 22.9643C7.97151 22.5606 7.97944 22.1103 8.1525 21.7125C8.32555 21.3147 8.64955 21.0019 9.05322 20.843C9.4569 20.684 9.90717 20.692 10.305 20.865L20.805 25.53C21.8276 25.9836 22.9338 26.2179 24.0525 26.2179C25.1712 26.2179 26.2774 25.9836 27.3 25.53L37.8 20.865C37.997 20.7793 38.2089 20.7333 38.4237 20.7295C38.6385 20.7257 38.8519 20.7643 39.0518 20.843C39.2516 20.9217 39.4341 21.039 39.5886 21.1882C39.7432 21.3374 39.8668 21.5155 39.9525 21.7125C40.0382 21.9095 40.0842 22.1214 40.088 22.3362C40.0918 22.551 40.0532 22.7644 39.9745 22.9643C39.8958 23.1642 39.7786 23.3466 39.6294 23.5011C39.4802 23.6557 39.302 23.7793 39.105 23.865L28.5 28.5C27.0848 29.1382 25.5524 29.4753 24 29.49Z" fill="url(#paint2_linear_102_13)"/>
<defs>
<linearGradient id="paint0_linear_102_13" x1="24" y1="1.60498" x2="24" y2="14.415" gradientUnits="userSpaceOnUse">
<stop stop-color="#F6F0EA"/>
<stop offset="1" stop-color="#F1DFD1"/>
</linearGradient>
<linearGradient id="paint1_linear_102_13" x1="48" y1="11.205" x2="0" y2="11.205" gradientUnits="userSpaceOnUse">
<stop stop-color="#FF8911"/>
<stop offset="1" stop-color="#F83600"/>
</linearGradient>
<linearGradient id="paint2_linear_102_13" x1="-2.15189e-06" y1="29.49" x2="1.5" y2="20.805" gradientUnits="userSpaceOnUse">
<stop stop-color="#F6F0EA"/>
<stop offset="1" stop-color="#F1DFD1"/>
</linearGradient>
</defs>
</svg>
