<svg width="48" height="48" viewBox="0 0 48 48" fill="none" xmlns="http://www.w3.org/2000/svg">
<g clip-path="url(#clip0_102_36)">
<path d="M42.6876 5.47933C37.306 4.39736 32.1282 2.4749 27.3445 -0.217458C26.3301 -0.811741 25.1757 -1.125 24 -1.125C22.8244 -1.125 21.6699 -0.811741 20.6555 -0.217458C15.8718 2.4749 10.6941 4.39736 5.31244 5.47933C3.81741 5.79426 2.47518 6.61132 1.50882 7.79473C0.542459 8.97813 0.010178 10.4566 0.000440913 11.9844V16.2146C-0.0292803 22.0707 1.44406 27.8365 4.27954 32.9604C7.11501 38.0844 11.2178 42.3951 16.1954 45.4802L20.4861 48.1423C21.5383 48.8002 22.7542 49.149 23.9952 49.149C25.2361 49.149 26.4521 48.8002 27.5042 48.1423L31.7926 45.4802C36.7724 42.3966 40.8776 38.0865 43.7152 32.9624C46.5529 27.8384 48.0281 22.0719 47.9996 16.2146V11.9844C47.9899 10.4566 47.4576 8.97813 46.4912 7.79473C45.5249 6.61132 44.1826 5.79426 42.6876 5.47933Z" fill="url(#paint0_linear_102_36)"/>
<path d="M26.4202 28.2326C26.1818 28.2332 25.9456 28.1864 25.7254 28.0951C25.5053 28.0037 25.3054 27.8694 25.1375 27.7002L20.2974 22.8601C19.9768 22.5161 19.8023 22.061 19.8106 21.5908C19.8189 21.1205 20.0094 20.6719 20.3419 20.3394C20.6745 20.0068 21.1231 19.8163 21.5933 19.808C22.0635 19.7997 22.5186 19.9743 22.8627 20.2949L26.4202 23.8499L37.2377 13.0347C37.5818 12.7141 38.0369 12.5396 38.5071 12.5479C38.9773 12.5562 39.426 12.7467 39.7585 13.0792C40.0911 13.4118 40.2816 13.8604 40.2898 14.3306C40.2981 14.8008 40.1236 15.2559 39.803 15.6L27.7028 27.7002C27.5349 27.8694 27.335 28.0037 27.1149 28.0951C26.8947 28.1864 26.6585 28.2332 26.4202 28.2326Z" fill="#FCC400"/>
<path d="M24 34.2826C22.1353 34.286 20.2978 33.8356 18.6459 32.9704C16.994 32.1052 15.5775 30.8512 14.5183 29.3164C13.4592 27.7816 12.7894 26.0122 12.5666 24.1609C12.3438 22.3095 12.5747 20.4317 13.2395 18.6895C13.9043 16.9473 14.9829 15.3929 16.3823 14.1605C17.7818 12.9282 19.46 12.0547 21.2723 11.6156C23.0846 11.1764 24.9765 11.1847 26.7848 11.6398C28.5932 12.0949 30.2637 12.9831 31.6522 14.2277C31.8469 14.3814 32.008 14.5733 32.1256 14.7917C32.2432 15.0101 32.3149 15.2502 32.336 15.4974C32.3572 15.7445 32.3275 15.9933 32.2488 16.2285C32.1701 16.4637 32.044 16.6803 31.8783 16.8648C31.7126 17.0494 31.5109 17.1981 31.2855 17.3016C31.0601 17.4052 30.8159 17.4615 30.568 17.467C30.32 17.4725 30.0735 17.4271 29.8438 17.3337C29.6141 17.2402 29.4059 17.1007 29.2322 16.9237C27.7966 15.6309 25.9319 14.9176 24 14.9223C21.9141 14.9223 19.9135 15.7509 18.4385 17.2259C16.9635 18.7009 16.1349 20.7015 16.1349 22.7874C16.1349 24.8734 16.9635 26.8739 18.4385 28.3489C19.9135 29.8239 21.9141 30.6526 24 30.6526C24.4134 30.6496 24.826 30.6156 25.2343 30.5509C25.9849 30.4323 26.7134 30.2014 27.3954 29.8661C29.0058 29.1006 30.3039 27.8043 31.0714 26.1949C31.2781 25.76 31.649 25.4251 32.1026 25.2637C32.5563 25.1024 33.0554 25.1279 33.4902 25.3345C33.9251 25.5412 34.26 25.9121 34.4214 26.3658C34.5827 26.8194 34.5572 27.3185 34.3506 27.7534C33.226 30.1116 31.3261 32.0123 28.9684 33.138C27.9607 33.6302 26.8846 33.968 25.7764 34.1399C25.1886 34.2314 24.5949 34.2792 24 34.2826Z" fill="white"/>
</g>
<defs>
<linearGradient id="paint0_linear_102_36" x1="48" y1="-1.125" x2="0" y2="-1.125" gradientUnits="userSpaceOnUse">
<stop stop-color="#FF8911"/>
<stop offset="1" stop-color="#F83600"/>
</linearGradient>
<clipPath id="clip0_102_36">
<rect width="48" height="48" fill="white"/>
</clipPath>
</defs>
</svg>
