<svg width="48" height="48" viewBox="0 0 48 48" fill="none" xmlns="http://www.w3.org/2000/svg">
<g clip-path="url(#clip0_102_54)">
<path d="M31.125 19.7804H39.5625V11.6447L31.125 13.754V19.7804Z" fill="url(#paint0_linear_102_54)"/>
<path d="M46.2 0.0552775L17.8875 8.49278C17.1282 8.71787 16.7063 9.50537 16.9313 10.2367C17.1562 10.996 17.9438 11.4179 18.6751 11.1929L22.5001 10.0446V16.968H1.40625C0.628969 16.968 0 17.5969 0 18.3742V26.8117C0 27.589 0.628969 28.218 1.40625 28.218H48V1.40547C48 0.955371 47.8031 0.53359 47.4375 0.280371C47.0718 -0.000878744 46.6219 -0.0572225 46.2 0.0552775ZM5.625 25.4054H2.8125V19.7804H5.625V25.4054ZM11.25 25.4054H8.4375V19.7804H11.25V25.4054ZM16.875 25.4054H14.0625V19.7804H16.875V25.4054ZM22.5 25.4054H19.6875V19.7804H22.5V25.4054ZM42.375 21.1866C42.375 21.9639 41.746 22.5929 40.9688 22.5929H29.7188C28.9415 22.5929 28.3125 21.9639 28.3125 21.1866V12.6554C28.3126 12.3418 28.4175 12.0372 28.6106 11.7901C28.8037 11.543 29.0739 11.3676 29.3782 11.2917L40.6282 8.47918C41.0442 8.37072 41.4906 8.46681 41.8339 8.73465C42.0024 8.86606 42.1387 9.03418 42.2325 9.22623C42.3262 9.41827 42.375 9.62917 42.3749 9.84287V21.1866H42.375ZM33.9375 31.0304H36.75V47.9991H33.9375V31.0304ZM39.5625 31.0304H42.375V47.9991H39.5625V31.0304ZM5.625 45.1866H1.40625C0.618656 45.1866 0 45.8053 0 46.5929C0 47.3803 0.618656 47.9991 1.40625 47.9991H11.25V35.2491C11.25 34.4718 11.879 33.8429 12.6562 33.8429H23.9062C24.6835 33.8429 25.3125 34.4718 25.3125 35.2491V47.9991H31.125V31.0304H5.625V45.1866ZM45.1875 47.9991H46.5938C47.3813 47.9991 48 47.3803 48 46.5929V31.0304H45.1875V47.9991Z" fill="url(#paint1_linear_102_54)"/>
<path d="M21.0938 39.4679H22.5V36.6554H14.0625V47.9991H22.5V42.2804H21.0938C20.3165 42.2804 19.6875 41.6514 19.6875 40.8741C19.6875 40.0969 20.3165 39.4679 21.0938 39.4679Z" fill="url(#paint2_linear_102_54)"/>
</g>
<defs>
<linearGradient id="paint0_linear_102_54" x1="39.5625" y1="11.6447" x2="31.125" y2="11.6447" gradientUnits="userSpaceOnUse">
<stop stop-color="#FF8911"/>
<stop offset="1" stop-color="#F83600"/>
</linearGradient>
<linearGradient id="paint1_linear_102_54" x1="48" y1="0.000976562" x2="0" y2="0.000976562" gradientUnits="userSpaceOnUse">
<stop stop-color="#FF8911"/>
<stop offset="1" stop-color="#F83600"/>
</linearGradient>
<linearGradient id="paint2_linear_102_54" x1="22.5" y1="36.6554" x2="14.0625" y2="36.6554" gradientUnits="userSpaceOnUse">
<stop stop-color="#FF8911"/>
<stop offset="1" stop-color="#F83600"/>
</linearGradient>
<clipPath id="clip0_102_54">
<rect width="48" height="48" fill="white"/>
</clipPath>
</defs>
</svg>
