<svg width="48" height="48" viewBox="0 0 48 48" fill="none" xmlns="http://www.w3.org/2000/svg">
<path d="M9.73497 34.0065C6.07498 31.6887 3.03686 28.5115 0.884974 24.7515C0.752285 24.5238 0.682373 24.265 0.682373 24.0015C0.682373 23.738 0.752285 23.4792 0.884974 23.2515C3.21562 19.173 6.57863 15.7797 10.6361 13.4127C14.6936 11.0456 19.3026 9.7881 24 9.76652C26.909 9.7676 29.7979 10.2491 32.55 11.1915L27.69 16.0515C26.5378 15.502 25.2764 15.22 24 15.2265C21.6728 15.2269 19.4411 16.1516 17.7956 17.7971C16.15 19.4426 15.2254 21.6744 15.225 24.0015C15.2185 25.278 15.5005 26.5394 16.05 27.6915L9.73497 34.0065ZM18.225 24.0015C18.2262 24.4565 18.2816 24.9097 18.39 25.3515L25.35 18.3915C24.501 18.1835 23.6159 18.1716 22.7617 18.3567C21.9075 18.5418 21.1067 18.919 20.4199 19.4597C19.7332 20.0004 19.1787 20.6904 18.7984 21.4773C18.4181 22.2643 18.222 23.1275 18.225 24.0015ZM47.115 23.2515C44.963 19.4916 41.9249 16.3144 38.265 13.9965L31.95 20.3115C32.4994 21.4637 32.7814 22.7251 32.775 24.0015C32.7722 26.3279 31.8468 28.5583 30.2018 30.2033C28.5567 31.8483 26.3264 32.7737 24 32.7765C22.7235 32.7829 21.4622 32.5009 20.31 31.9515L15.45 36.8115C18.2021 37.754 21.091 38.2354 24 38.2365C28.6973 38.2148 33.3063 36.9572 37.3637 34.5902C41.4212 32.2231 44.7842 28.8299 47.115 24.7515C47.2477 24.5238 47.3176 24.265 47.3176 24.0015C47.3176 23.738 47.2477 23.4792 47.115 23.2515ZM24 29.7765C24.8739 29.7792 25.737 29.583 26.5238 29.2026C27.3106 28.8221 28.0004 28.2676 28.5411 27.581C29.0817 26.8943 29.4589 26.0936 29.6441 25.2395C29.8293 24.3855 29.8176 23.5004 29.61 22.6515L22.65 29.6115C23.0918 29.7199 23.545 29.7753 24 29.7765ZM21.12 29.0115L29.01 21.1215L31.17 18.9615L36.945 13.1865L39.915 10.2165C40.1974 9.93407 40.3561 9.55098 40.3561 9.15152C40.3561 8.75207 40.1974 8.36898 39.915 8.08652C39.6325 7.80407 39.2494 7.64539 38.85 7.64539C38.4505 7.64539 38.0674 7.80407 37.785 8.08652L34.095 11.7765L29.04 16.8315L26.88 18.9915L18.99 26.8815L16.83 29.0415L11.055 34.8165L8.08497 37.7865C7.80395 38.0697 7.64625 38.4525 7.64625 38.8515C7.64625 39.2505 7.80395 39.6333 8.08497 39.9165C8.36932 40.1954 8.7517 40.3516 9.14997 40.3516C9.54824 40.3516 9.93063 40.1954 10.215 39.9165L18.96 31.1715L21.12 29.0115Z" fill="url(#paint0_linear_102_74)"/>
<defs>
<linearGradient id="paint0_linear_102_74" x1="47.3176" y1="7.64539" x2="0.682373" y2="7.64539" gradientUnits="userSpaceOnUse">
<stop stop-color="#FF8911"/>
<stop offset="1" stop-color="#F83600"/>
</linearGradient>
</defs>
</svg>
