<svg width="48" height="48" viewBox="0 0 48 48" fill="none" xmlns="http://www.w3.org/2000/svg">
<g clip-path="url(#clip0_102_71)">
<path d="M24 0C10.766 0 0 10.766 0 24C0 37.234 10.766 48 24 48C37.234 48 48 37.234 48 24C48 10.766 37.234 0 24 0ZM37.978 20.088L35.804 32.754C35.7441 33.1026 35.5629 33.4188 35.2925 33.6468C35.022 33.8748 34.6797 33.9999 34.326 34H13.674C13.3203 33.9999 12.978 33.8748 12.7075 33.6468C12.4371 33.4188 12.2559 33.1026 12.196 32.754L10.022 20.088C9.97528 19.8159 10.0046 19.5362 10.1066 19.2797C10.2086 19.0232 10.3795 18.7998 10.6004 18.6342C10.8212 18.4685 11.0835 18.367 11.3583 18.3409C11.6332 18.3148 11.9099 18.365 12.158 18.486L17.946 21.304L22.69 12.77C23.218 11.816 24.784 11.816 25.312 12.77L30.056 21.304L35.844 18.486C36.092 18.3647 36.3687 18.3143 36.6435 18.3404C36.9184 18.3665 37.1806 18.468 37.4014 18.6337C37.6222 18.7994 37.7929 19.023 37.8946 19.2796C37.9964 19.5362 38.0252 19.816 37.978 20.088Z" fill="url(#paint0_linear_102_71)"/>
</g>
<defs>
<linearGradient id="paint0_linear_102_71" x1="48" y1="0" x2="0" y2="0" gradientUnits="userSpaceOnUse">
<stop stop-color="#FF8911"/>
<stop offset="1" stop-color="#F83600"/>
</linearGradient>
<clipPath id="clip0_102_71">
<rect width="48" height="48" fill="white"/>
</clipPath>
</defs>
</svg>
