<svg width="48" height="48" viewBox="0 0 48 48" fill="none" xmlns="http://www.w3.org/2000/svg">
<g clip-path="url(#clip0_102_41)">
<path d="M17.8619 28.2354C17.2307 27.6135 16.4362 27.2283 15.7893 27.2283C15.5943 27.2283 15.3261 27.2654 15.1525 27.4418L10.1654 32.5097C9.8916 32.7881 9.96029 33.2949 10.0021 33.4982C10.1209 34.0755 10.4856 34.6974 11.0026 35.206C11.6338 35.827 12.4283 36.2131 13.0753 36.2131C13.2702 36.2131 13.5375 36.176 13.712 35.9996L18.6991 30.9318C19.1409 30.4816 18.8764 29.2332 17.8619 28.2354ZM13.8791 25.0397C13.7603 24.4642 13.3964 23.8423 12.8794 23.3327C12.239 22.7016 11.4435 22.3164 10.7966 22.3164C10.6017 22.3164 10.3343 22.3535 10.1608 22.5299L5.17366 27.5977C4.89985 27.8762 4.9676 28.383 5.0103 28.5863C5.12911 29.1636 5.49295 29.7855 6.01088 30.2941C6.65132 30.9253 7.44585 31.3105 8.09279 31.3105C8.28771 31.3105 8.55502 31.2733 8.72859 31.097L13.7157 26.0291C13.9895 25.7507 13.9218 25.2439 13.8791 25.0397ZM22.8444 33.138C22.2132 32.5171 21.4196 32.131 20.7727 32.131C20.5778 32.131 20.3095 32.1681 20.1359 32.3445L15.1488 37.4123C14.707 37.8625 14.9706 39.1109 15.986 40.1096C16.6172 40.7306 17.4117 41.1158 18.0587 41.1158C18.2536 41.1158 18.5209 41.0786 18.6945 40.9023L23.6816 35.8344C24.1234 35.3852 23.8589 34.1358 22.8444 33.138ZM25.7542 37.0336C25.5593 37.0336 25.292 37.0708 25.1184 37.2471L20.1313 42.315C19.8575 42.5934 19.9262 43.1002 19.9679 43.3044C20.0867 43.8799 20.4515 44.5018 20.9685 45.0123C21.609 45.6425 22.4035 46.0277 23.0514 46.0277C23.2453 46.0277 23.5136 45.9906 23.6872 45.8142L28.6743 40.7463C29.1161 40.2971 28.8506 39.0478 27.8371 38.05C27.1966 37.4188 26.4012 37.0336 25.7542 37.0336ZM44.1452 6.54473C42.9274 5.31692 41.4776 4.34356 39.8802 3.68131C38.2827 3.01906 36.5695 2.68114 34.8402 2.68721C33.1096 2.68235 31.3951 3.02079 29.7962 3.68293C28.1972 4.34508 26.7455 5.31778 25.525 6.54473L18.6824 13.3975C18.6035 13.4751 18.5423 13.5689 18.5029 13.6723C18.4634 13.7757 18.4468 13.8864 18.454 13.9969C18.4612 14.1073 18.4922 14.2149 18.5447 14.3124C18.5973 14.4098 18.6702 14.4947 18.7585 14.5614C20.0682 15.5546 21.9143 15.6817 23.3901 14.8269L31.4356 10.0932C31.6655 9.96357 31.937 9.92927 32.1918 9.99762C32.4467 10.066 32.6646 10.2315 32.7987 10.4588C32.9329 10.686 32.9726 10.9567 32.9093 11.2129C32.846 11.4691 32.6848 11.6902 32.4603 11.8289L31.7345 12.2558L32.6376 13.1599C32.6469 13.1682 32.659 13.1701 32.6673 13.1784L43.1558 23.6669C43.5827 24.0934 43.9204 24.6008 44.1489 25.1594C45.3738 23.9398 46.3447 22.4895 47.0057 20.8923C47.6667 19.2952 48.0047 17.5829 47.9999 15.8544C48.0049 14.1248 47.6668 12.4114 47.0051 10.8134C46.3435 9.21541 45.3714 7.76452 44.1452 6.54473Z" fill="url(#paint0_linear_102_41)"/>
<path d="M31.2648 14.6265C31.2556 14.6181 31.2435 14.6162 31.2351 14.6079L29.9403 13.3112L24.4065 16.5664C22.229 17.8287 19.4872 17.6412 17.5426 16.1672C17.2242 15.9271 16.9612 15.6214 16.7713 15.2707C16.5814 14.92 16.4691 14.5327 16.442 14.1348C16.4149 13.7369 16.4736 13.3379 16.6142 12.9647C16.7548 12.5916 16.9739 12.253 17.2567 11.9719L22.9279 6.29139L22.6847 6.04542C20.058 3.41959 16.5931 1.9707 12.9296 1.9707C9.44331 1.9707 6.18539 3.30914 3.75727 5.73726C-1.37093 10.8747 -1.2317 19.3685 4.06914 24.6694L4.65297 25.2541L8.72397 21.1154C9.24932 20.5826 9.96588 20.2995 10.7966 20.2995C11.9884 20.2995 13.2591 20.8778 14.2828 21.8848C15.0996 22.6886 15.6528 23.6604 15.8533 24.6322C15.8951 24.8346 15.9035 25.0314 15.9127 25.2263C17.0683 25.2643 18.2861 25.824 19.2755 26.7977C20.2965 27.8029 20.8423 29.0179 20.8971 30.1299C22.0526 30.1679 23.2704 30.7276 24.2589 31.7003C25.2799 32.7056 25.8248 33.9206 25.8805 35.0325C27.0351 35.0706 28.252 35.6312 29.2405 36.6039C30.0666 37.4152 30.5771 38.3619 30.7813 39.2799C31.1321 39.1555 31.4449 38.9661 31.7039 38.7025C32.1771 38.2276 32.4437 37.5851 32.4456 36.9146C32.4475 36.2442 32.1846 35.6001 31.7141 35.1226L31.7113 35.1198L21.2182 24.6257C21.1246 24.5324 21.0503 24.4214 20.9996 24.2992C20.949 24.1771 20.923 24.0461 20.9231 23.9138C20.9224 23.7143 20.981 23.519 21.0915 23.3529C21.202 23.1867 21.3594 23.0571 21.5437 22.9805C21.728 22.904 21.9308 22.8839 22.1265 22.9228C22.3223 22.9617 22.502 23.0579 22.643 23.1991L33.1333 33.6894L33.1416 33.6987C33.6176 34.1699 34.2605 34.4338 34.9303 34.433C35.6 34.4321 36.2422 34.1665 36.717 33.6941C37.1959 33.2161 37.4595 32.5793 37.4595 31.9027C37.4595 31.226 37.1959 30.5902 36.717 30.1113L26.2248 19.6219C26.1312 19.5283 26.057 19.4172 26.0063 19.2949C25.9556 19.1726 25.9296 19.0415 25.9296 18.9091C25.9296 18.7767 25.9556 18.6456 26.0063 18.5233C26.057 18.401 26.1312 18.2898 26.2248 18.1962C26.3184 18.1026 26.4296 18.0284 26.5519 17.9777C26.6742 17.927 26.8053 17.901 26.9377 17.901C27.0701 17.901 27.2011 17.927 27.3235 17.9777C27.4458 18.0284 27.5569 18.1026 27.6505 18.1962L38.139 28.6847C39.0978 29.6444 40.7703 29.6454 41.7301 28.6847C42.21 28.2048 42.4736 27.5672 42.4736 26.8887C42.4736 26.2102 42.209 25.5725 41.7301 25.0926L31.2648 14.6265Z" fill="url(#paint1_linear_102_41)"/>
</g>
<defs>
<linearGradient id="paint0_linear_102_41" x1="48" y1="2.68713" x2="4.9704" y2="2.68713" gradientUnits="userSpaceOnUse">
<stop stop-color="#FF8911"/>
<stop offset="1" stop-color="#F83600"/>
</linearGradient>
<linearGradient id="paint1_linear_102_41" x1="42.4736" y1="1.9707" x2="0.000488281" y2="1.9707" gradientUnits="userSpaceOnUse">
<stop stop-color="#FF8911"/>
<stop offset="1" stop-color="#F83600"/>
</linearGradient>
<clipPath id="clip0_102_41">
<rect width="48" height="48" fill="white"/>
</clipPath>
</defs>
</svg>
